<svg width="53" height="60" viewBox="0 0 53 60" fill="none" xmlns="http://www.w3.org/2000/svg">
<path d="M7.95 23.1208V38.6355C7.95 40.6987 6.27995 42.3467 4.15443 42.3467C2.04271 42.3467 0 40.6853 0 38.6355V23.1208C0 21.0977 2.04271 19.4364 4.15443 19.4364C6.23854 19.4364 7.95 21.0977 7.95 23.1208ZM9.44063 44.1554C9.44063 46.3526 11.2625 48.1211 13.526 48.1211H16.2727L16.3141 56.3072C16.3141 61.251 23.9328 61.2108 23.9328 56.3072V48.1211H29.0672V56.3072C29.0672 61.2242 36.7273 61.2376 36.7273 56.3072V48.1211H39.5154C41.7513 48.1211 43.5732 46.3526 43.5732 44.1554V20.1196H9.44063V44.1554ZM43.6698 18.82H9.2888C9.2888 13.0858 12.8221 8.10178 18.0669 5.5026L15.4307 0.773162C15.0443 0.116667 16.0242 -0.298666 16.3555 0.264044L19.0331 5.03367C23.85 2.95701 29.3846 3.06419 33.9807 5.03367L36.6445 0.277441C36.9896 -0.298666 37.9557 0.130065 37.5693 0.786559L34.9331 5.5026C40.1365 8.10178 43.6698 13.0858 43.6698 18.82ZM20.1096 11.3843C20.1096 10.6206 19.4747 9.97748 18.6604 9.97748C17.8737 9.97748 17.2526 10.6206 17.2526 11.3843C17.2526 12.1479 17.8875 12.791 18.6604 12.791C19.4747 12.791 20.1096 12.1479 20.1096 11.3843ZM35.7612 11.3843C35.7612 10.6206 35.1263 9.97748 34.3534 9.97748C33.5391 9.97748 32.9042 10.6206 32.9042 11.3843C32.9042 12.1479 33.5391 12.791 34.3534 12.791C35.1263 12.791 35.7612 12.1479 35.7612 11.3843ZM48.8456 19.4364C46.7615 19.4364 45.05 21.0575 45.05 23.1208V38.6355C45.05 40.6987 46.7615 42.3467 48.8456 42.3467C50.9711 42.3467 53 40.6853 53 38.6355V23.1208C53 21.0575 50.9573 19.4364 48.8456 19.4364Z" fill="#FBFEF9"/>
</svg>
