<svg width="43" height="42" viewBox="0 0 43 42" fill="none" xmlns="http://www.w3.org/2000/svg">
<path d="M41.6717 20.6668C41.6717 31.8409 32.6133 40.8993 21.4392 40.8993C10.2651 40.8993 1.20667 31.8409 1.20667 20.6668C1.20667 9.49263 10.2651 0.434211 21.4392 0.434211C32.6133 0.434211 41.6717 9.49263 41.6717 20.6668Z" stroke="#EB370B" stroke-width="0.868421"/>
<path d="M26.6034 13.7781H16.2701C15.3189 13.7781 14.5479 14.5491 14.5479 15.5003V25.8337C14.5479 26.7849 15.3189 27.5559 16.2701 27.5559H26.6034C27.5546 27.5559 28.3256 26.7849 28.3256 25.8337V15.5003C28.3256 14.5491 27.5546 13.7781 26.6034 13.7781Z" stroke="#EB370B" stroke-width="1.73684" stroke-linecap="round" stroke-linejoin="round"/>
<path d="M17.9912 19.8045V24.1101M17.9912 17.2212V17.2298M21.4357 24.1101V19.8045M24.8801 24.1101V21.5268C24.8801 21.07 24.6987 20.632 24.3757 20.309C24.0527 19.986 23.6146 19.8045 23.1579 19.8045C22.7011 19.8045 22.2631 19.986 21.9401 20.309C21.6171 20.632 21.4357 21.07 21.4357 21.5268" stroke="#EB370B" stroke-width="1.73684" stroke-linecap="round" stroke-linejoin="round"/>
</svg>
