<svg width="42" height="42" viewBox="0 0 42 42" fill="none" xmlns="http://www.w3.org/2000/svg">
<path d="M41.4031 20.6668C41.4031 31.8409 32.3447 40.8993 21.1706 40.8993C9.99651 40.8993 0.938117 31.8409 0.938117 20.6668C0.938117 9.49263 9.99651 0.434211 21.1706 0.434211C32.3447 0.434211 41.4031 9.49263 41.4031 20.6668Z" stroke="#EB370B" stroke-width="0.868421"/>
<g clip-path="url(#clip0_249_323)">
<path d="M21.1717 13.7781C21.9079 13.7781 22.6631 13.797 23.3951 13.828L24.2596 13.8694L25.0872 13.9184L25.8622 13.971L26.57 14.0261C27.3382 14.0849 28.061 14.4127 28.6113 14.9518C29.1616 15.4909 29.5042 16.2069 29.5787 16.9737L29.6132 17.3397L29.6778 18.1233C29.738 18.9353 29.7828 19.8205 29.7828 20.667C29.7828 21.5135 29.738 22.3987 29.6778 23.2107L29.6132 23.9944C29.602 24.1201 29.5908 24.2415 29.5787 24.3603C29.5042 25.1273 29.1615 25.8433 28.611 26.3825C28.0605 26.9216 27.3374 27.2493 26.5691 27.3079L25.863 27.3622L25.088 27.4156L24.2596 27.4647L23.3951 27.506C22.6544 27.5382 21.9131 27.5548 21.1717 27.5559C20.4303 27.5548 19.689 27.5382 18.9483 27.506L18.0837 27.4647L17.2562 27.4156L16.4812 27.3622L15.7734 27.3079C15.0052 27.2491 14.2824 26.9213 13.7321 26.3822C13.1817 25.8431 12.8392 25.1271 12.7646 24.3603L12.7302 23.9944L12.6656 23.2107C12.5998 22.3644 12.5647 21.5159 12.5605 20.667C12.5605 19.8205 12.6053 18.9353 12.6656 18.1233L12.7302 17.3397C12.7414 17.2139 12.7526 17.0925 12.7646 16.9737C12.8392 16.207 13.1816 15.4912 13.7317 14.9521C14.2819 14.413 15.0045 14.0851 15.7725 14.0261L16.4795 13.971L17.2545 13.9184L18.0829 13.8694L18.9474 13.828C19.6884 13.7958 20.43 13.7792 21.1717 13.7781ZM21.1717 15.5003C20.4613 15.5003 19.7302 15.5193 19.0189 15.5485L18.1767 15.589L17.3681 15.6364L16.6086 15.688L15.9129 15.7423C15.5472 15.7682 15.2025 15.9228 14.9399 16.1786C14.6773 16.4345 14.5137 16.775 14.4782 17.1399C14.3775 18.181 14.2828 19.4769 14.2828 20.667C14.2828 21.8571 14.3775 23.153 14.4782 24.1941C14.5514 24.945 15.1473 25.5289 15.9129 25.5917L16.6086 25.6451L17.3681 25.6968L18.1767 25.745L19.0189 25.7855C19.7302 25.8148 20.4613 25.8337 21.1717 25.8337C21.8821 25.8337 22.6132 25.8148 23.3245 25.7855L24.1666 25.745L24.9752 25.6976L25.7347 25.646L26.4305 25.5917C26.7962 25.5658 27.1409 25.4112 27.4035 25.1554C27.6661 24.8996 27.8296 24.559 27.8651 24.1941C27.9659 23.153 28.0606 21.8571 28.0606 20.667C28.0606 19.4769 27.9659 18.181 27.8651 17.1399C27.8296 16.775 27.6661 16.4345 27.4035 16.1786C27.1409 15.9228 26.7962 15.7682 26.4305 15.7423L25.7347 15.6889L24.9752 15.6372L24.1666 15.589L23.3245 15.5485C22.6073 15.5177 21.8895 15.5016 21.1717 15.5003ZM19.4495 18.5788C19.4494 18.4946 19.4699 18.4117 19.5092 18.3373C19.5485 18.2629 19.6053 18.1992 19.6749 18.1517C19.7444 18.1043 19.8244 18.0745 19.908 18.0651C19.9917 18.0556 20.0764 18.0667 20.1547 18.0974L20.2245 18.1319L23.8411 20.2192C23.9132 20.2608 23.9741 20.3191 24.0187 20.3892C24.0634 20.4594 24.0905 20.5393 24.0977 20.6221C24.1048 20.7049 24.0919 20.7883 24.06 20.8651C24.0281 20.9418 23.9781 21.0098 23.9143 21.0631L23.8411 21.1148L20.2245 23.203C20.1516 23.2452 20.0695 23.2689 19.9853 23.2722C19.9012 23.2754 19.8175 23.258 19.7416 23.2215C19.6657 23.185 19.5999 23.1305 19.5499 23.0627C19.4998 22.995 19.4671 22.916 19.4546 22.8327L19.4495 22.7552V18.5788Z" fill="#EB370B"/>
</g>
<defs>
<clipPath id="clip0_249_323">
<rect width="20.6667" height="20.6668" fill="white" transform="translate(10.8389 10.335)"/>
</clipPath>
</defs>
</svg>
