<svg width="42" height="42" viewBox="0 0 42 42" fill="none" xmlns="http://www.w3.org/2000/svg">
<path d="M40.9363 20.6668C40.9363 31.8409 31.8779 40.8993 20.7038 40.8993C9.52972 40.8993 0.47132 31.8409 0.47132 20.6668C0.47132 9.49263 9.52972 0.434211 20.7038 0.434211C31.8779 0.434211 40.9363 9.49263 40.9363 20.6668Z" stroke="#EB370B" stroke-width="0.868421"/>
<path d="M23.3915 14.9175H25.0104V12.1792C24.2266 12.0977 23.439 12.0574 22.651 12.0586C20.3088 12.0586 18.7071 13.4881 18.7071 16.1059V18.362H16.0635V21.4276H18.7071V29.281H21.876V21.4276H24.511L24.9071 18.362H21.876V16.4073C21.876 15.5031 22.1171 14.9175 23.3915 14.9175Z" fill="#EB370B"/>
</svg>
