<svg width="43" height="42" viewBox="0 0 43 42" fill="none" xmlns="http://www.w3.org/2000/svg">
<path d="M41.8015 20.6668C41.8015 31.8409 32.7431 40.8993 21.569 40.8993C10.395 40.8993 1.33655 31.8409 1.33655 20.6668C1.33655 9.49263 10.395 0.434211 21.569 0.434211C32.7431 0.434211 41.8015 9.49263 41.8015 20.6668Z" stroke="#EB370B" stroke-width="0.868421"/>
<path d="M21.571 16.7934C20.8046 16.7934 20.0554 17.0207 19.4181 17.4465C18.7809 17.8722 18.2842 18.4774 17.9909 19.1855C17.6977 19.8936 17.6209 20.6727 17.7704 21.4244C17.92 22.1761 18.289 22.8665 18.8309 23.4085C19.3729 23.9504 20.0633 24.3194 20.815 24.469C21.5667 24.6185 22.3458 24.5417 23.0539 24.2485C23.762 23.9552 24.3671 23.4585 24.7929 22.8213C25.2187 22.184 25.446 21.4348 25.446 20.6684C25.446 19.6407 25.0377 18.6551 24.311 17.9284C23.5843 17.2017 22.5987 16.7934 21.571 16.7934ZM21.571 23.2518C21.0601 23.2518 20.5606 23.1002 20.1358 22.8164C19.7109 22.5325 19.3798 22.1291 19.1843 21.657C18.9888 21.185 18.9376 20.6655 19.0373 20.1644C19.137 19.6633 19.383 19.203 19.7443 18.8417C20.1056 18.4804 20.5659 18.2344 21.067 18.1347C21.5681 18.035 22.0875 18.0862 22.5596 18.2817C23.0316 18.4772 23.4351 18.8084 23.719 19.2332C24.0028 19.658 24.1543 20.1575 24.1543 20.6684C24.1522 21.3529 23.8793 22.0087 23.3953 22.4928C22.9113 22.9768 22.2555 23.2496 21.571 23.2518ZM25.1231 12.5955H18.0189C16.8199 12.5955 15.67 13.0718 14.8222 13.9196C13.9743 14.7674 13.498 15.9173 13.498 17.1163V24.2205C13.498 25.4195 13.9743 26.5694 14.8222 27.4172C15.67 28.2651 16.8199 28.7414 18.0189 28.7414H25.1231C26.3221 28.7414 27.472 28.2651 28.3198 27.4172C29.1676 26.5694 29.6439 25.4195 29.6439 24.2205V17.1163C29.6439 15.9173 29.1676 14.7674 28.3198 13.9196C27.472 13.0718 26.3221 12.5955 25.1231 12.5955ZM28.3523 24.2205C28.3523 24.6446 28.2687 25.0645 28.1064 25.4563C27.9442 25.848 27.7063 26.204 27.4065 26.5039C27.1066 26.8037 26.7506 27.0416 26.3588 27.2039C25.9671 27.3662 25.5471 27.4497 25.1231 27.4497H18.0189C17.5948 27.4497 17.1749 27.3662 16.7831 27.2039C16.3914 27.0416 16.0354 26.8037 15.7355 26.5039C15.4357 26.204 15.1978 25.848 15.0355 25.4563C14.8732 25.0645 14.7897 24.6446 14.7897 24.2205V17.1163C14.7897 16.2599 15.1299 15.4385 15.7355 14.8329C16.3411 14.2273 17.1625 13.8871 18.0189 13.8871H25.1231C25.5471 13.8871 25.9671 13.9707 26.3588 14.1329C26.7506 14.2952 27.1066 14.5331 27.4065 14.8329C27.7063 15.1328 27.9442 15.4888 28.1064 15.8806C28.2687 16.2723 28.3523 16.6922 28.3523 17.1163V24.2205ZM26.7377 16.4705C26.7377 16.6621 26.6809 16.8494 26.5744 17.0087C26.468 17.168 26.3167 17.2922 26.1396 17.3655C25.9626 17.4388 25.7678 17.458 25.5799 17.4206C25.392 17.3832 25.2194 17.291 25.0839 17.1555C24.9484 17.02 24.8562 16.8474 24.8188 16.6595C24.7814 16.4715 24.8006 16.2768 24.8739 16.0997C24.9472 15.9227 25.0714 15.7714 25.2307 15.665C25.39 15.5585 25.5773 15.5017 25.7689 15.5017C26.0258 15.5017 26.2722 15.6038 26.4539 15.7855C26.6356 15.9671 26.7377 16.2135 26.7377 16.4705Z" fill="#EB370B"/>
</svg>
