<svg width="42" height="42" viewBox="0 0 42 42" fill="none" xmlns="http://www.w3.org/2000/svg">
<path d="M41.5369 20.6668C41.5369 31.8409 32.4785 40.8993 21.3044 40.8993C10.1303 40.8993 1.07191 31.8409 1.07191 20.6668C1.07191 9.49263 10.1303 0.434211 21.3044 0.434211C32.4785 0.434211 41.5369 9.49263 41.5369 20.6668Z" stroke="#EB370B" stroke-width="0.868421"/>
<path d="M30.9442 15.8975C30.8948 15.78 30.8117 15.6797 30.7054 15.6093C30.5991 15.5389 30.4744 15.5015 30.3468 15.5019H27.8927C27.5982 14.9881 27.1893 14.549 26.6978 14.2185C26.2064 13.8881 25.6454 13.6752 25.0584 13.5964C24.4715 13.5175 23.8742 13.5748 23.313 13.7639C22.7517 13.953 22.2415 14.2687 21.8218 14.6866C21.4544 15.0448 21.1623 15.4729 20.9627 15.9457C20.763 16.4184 20.6599 16.9263 20.6593 17.4395V17.9319C17.3736 17.0762 14.6854 14.4282 14.6611 14.3959C14.5767 14.3129 14.471 14.2546 14.3557 14.2276C14.2404 14.2005 14.1198 14.2057 14.0072 14.2426C13.895 14.2783 13.7945 14.3436 13.7164 14.4317C13.6382 14.5198 13.5853 14.6274 13.5632 14.7431C12.8609 18.6343 14.0315 21.2418 15.1374 22.7434C15.6922 23.5027 16.3654 24.1678 17.1315 24.7132C15.8963 26.1098 13.9911 26.8364 13.9749 26.8445C13.8838 26.8782 13.8015 26.9322 13.7341 27.0022C13.6668 27.0722 13.6161 27.1565 13.5858 27.2489C13.5555 27.3412 13.5465 27.4392 13.5594 27.5355C13.5722 27.6318 13.6067 27.724 13.6601 27.8051C13.7247 27.902 13.9669 28.2169 14.5562 28.5156C15.2908 28.8788 16.2596 29.0645 17.4302 29.0645C23.1216 29.0645 27.8846 24.6809 28.369 19.0379L30.807 16.6079C30.8946 16.5146 30.954 16.3983 30.9783 16.2726C31.0026 16.1468 30.9908 16.0168 30.9442 15.8975ZM27.2872 18.2952C27.1747 18.4068 27.1084 18.5567 27.1015 18.715C26.7705 23.7929 22.5242 27.7728 17.4302 27.7728C16.5744 27.7728 15.977 27.6598 15.5572 27.5226C16.4856 27.0221 17.7773 26.1502 18.6169 24.8989C18.6656 24.8231 18.698 24.738 18.7119 24.6491C18.7258 24.5601 18.7209 24.4692 18.6976 24.3822C18.6741 24.2943 18.6325 24.2123 18.5755 24.1414C18.5185 24.0705 18.4474 24.0123 18.3666 23.9705C18.3585 23.9624 17.1637 23.3408 16.1385 21.928C14.976 20.3296 14.4835 18.384 14.6773 16.1397C15.9528 17.1892 18.3908 18.9007 21.2002 19.3689C21.293 19.3838 21.3879 19.3785 21.4784 19.3534C21.569 19.3284 21.6531 19.2841 21.725 19.2236C21.7952 19.1621 21.8517 19.0864 21.8907 19.0015C21.9296 18.9167 21.9502 18.8245 21.951 18.7311V17.4395C21.9522 16.8469 22.1571 16.2728 22.5313 15.8133C22.9055 15.3539 23.4262 15.037 24.0063 14.9159C24.5863 14.7948 25.1904 14.8767 25.7172 15.1481C26.244 15.4194 26.6615 15.8636 26.8997 16.4061C26.9512 16.5215 27.035 16.6195 27.141 16.6883C27.2471 16.7571 27.3707 16.7937 27.4971 16.7936H28.7888L27.2872 18.2952Z" fill="#EB370B"/>
</svg>
