<svg width="50" height="60" viewBox="0 0 50 60" fill="none" xmlns="http://www.w3.org/2000/svg">
<path d="M41.8039 31.7067C41.7774 26.7906 43.9825 23.0801 48.4458 20.3475C45.9485 16.7441 42.1759 14.7616 37.1945 14.3731C32.4787 13.9981 27.3247 17.146 25.4384 17.146C23.4458 17.146 18.8762 14.5071 15.2896 14.5071C7.87726 14.6277 0 20.468 0 32.3496C0 35.8592 0.637619 39.4849 1.91286 43.2266C3.61318 48.1427 9.75027 60.1984 16.153 59.9975C19.5005 59.9171 21.865 57.5998 26.2221 57.5998C30.4463 57.5998 32.6381 59.9975 36.3709 59.9975C42.8268 59.9038 48.3794 48.9464 50 44.0169C41.339 39.9046 41.8039 31.9612 41.8039 31.7067ZM34.2853 9.71159C37.9118 5.37151 37.5797 1.4199 37.4734 0C34.2721 0.187534 30.5659 2.19683 28.4538 4.67496C26.1291 7.32723 24.7609 10.6091 25.0531 14.3062C28.5202 14.5741 31.6817 12.7791 34.2853 9.71159Z" fill="#737373"/>
</svg>
