<svg width="50" height="60" viewBox="0 0 50 60" fill="none" xmlns="http://www.w3.org/2000/svg">
<path d="M41.8037 31.7067C41.7771 26.7906 43.9822 23.0801 48.4456 20.3475C45.9482 16.7441 42.1756 14.7616 37.1942 14.3731C32.4785 13.9981 27.3244 17.146 25.4381 17.146C23.4456 17.146 18.876 14.5071 15.2893 14.5071C7.87701 14.6277 -0.000244141 20.468 -0.000244141 32.3496C-0.000244141 35.8592 0.637375 39.4849 1.91261 43.2266C3.61293 48.1427 9.75002 60.1984 16.1528 59.9975C19.5003 59.9171 21.8648 57.5998 26.2219 57.5998C30.4461 57.5998 32.6379 59.9975 36.3706 59.9975C42.8265 59.9038 48.3791 48.9464 49.9998 44.0169C41.3388 39.9046 41.8037 31.9612 41.8037 31.7067ZM34.2851 9.71159C37.9116 5.37151 37.5795 1.4199 37.4732 0C34.2718 0.187534 30.5656 2.19683 28.4535 4.67496C26.1289 7.32723 24.7607 10.6091 25.0529 14.3062C28.5199 14.5741 31.6815 12.7791 34.2851 9.71159Z" fill="#FBFEF9"/>
</svg>
