<svg width="25" height="25" viewBox="0 0 25 25" fill="none" xmlns="http://www.w3.org/2000/svg">
<path d="M16.6582 7.8125C15.9502 3.45215 14.2803 0.390625 12.3369 0.390625C10.3936 0.390625 8.72363 3.45215 8.01562 7.8125H16.6582ZM7.64941 12.5C7.64941 13.584 7.70801 14.624 7.81055 15.625H16.8584C16.9609 14.624 17.0195 13.584 17.0195 12.5C17.0195 11.416 16.9609 10.376 16.8584 9.375H7.81055C7.70801 10.376 7.64941 11.416 7.64941 12.5ZM23.5039 7.8125C22.1074 4.49707 19.2803 1.93359 15.7891 0.898438C16.9805 2.54883 17.8008 5.03418 18.2305 7.8125H23.5039ZM8.87988 0.898438C5.39355 1.93359 2.56152 4.49707 1.16992 7.8125H6.44336C6.86816 5.03418 7.68848 2.54883 8.87988 0.898438ZM24.0264 9.375H18.4258C18.5283 10.4004 18.5869 11.4502 18.5869 12.5C18.5869 13.5498 18.5283 14.5996 18.4258 15.625H24.0215C24.29 14.624 24.4414 13.584 24.4414 12.5C24.4414 11.416 24.29 10.376 24.0264 9.375ZM6.08691 12.5C6.08691 11.4502 6.14551 10.4004 6.24805 9.375H0.647461C0.383789 10.376 0.227539 11.416 0.227539 12.5C0.227539 13.584 0.383789 14.624 0.647461 15.625H6.24316C6.14551 14.5996 6.08691 13.5498 6.08691 12.5ZM8.01562 17.1875C8.72363 21.5479 10.3936 24.6094 12.3369 24.6094C14.2803 24.6094 15.9502 21.5479 16.6582 17.1875H8.01562ZM15.7939 24.1016C19.2803 23.0664 22.1123 20.5029 23.5088 17.1875H18.2354C17.8057 19.9658 16.9854 22.4512 15.7939 24.1016ZM1.16992 17.1875C2.56641 20.5029 5.39355 23.0664 8.88477 24.1016C7.69336 22.4512 6.87305 19.9658 6.44336 17.1875H1.16992Z" fill="white"/>
</svg>
